<svg xmlns="http://www.w3.org/2000/svg" viewBox="0 0 200 560" width="100%" height="100%" preserveAspectRatio="xMidYMid slice">
  <defs>
    <linearGradient id="woodL" x1="0%" y1="0%" x2="100%" y2="100%">
      <stop offset="0%"   stop-color="#7B1C0A"/>
      <stop offset="40%"  stop-color="#5C1200"/>
      <stop offset="100%" stop-color="#3A0A00"/>
    </linearGradient>
    <linearGradient id="goldShineL" x1="0%" y1="0%" x2="0%" y2="100%">
      <stop offset="0%"   stop-color="#FFE066"/>
      <stop offset="40%"  stop-color="#D4A017"/>
      <stop offset="100%" stop-color="#8B6914"/>
    </linearGradient>
    <linearGradient id="panelBgL" x1="0%" y1="0%" x2="100%" y2="100%">
      <stop offset="0%"   stop-color="#6B1500"/>
      <stop offset="100%" stop-color="#3D0800"/>
    </linearGradient>
    <pattern id="woodGrainL" x="0" y="0" width="4" height="80" patternUnits="userSpaceOnUse">
      <rect width="4" height="80" fill="none"/>
      <line x1="0" y1="0" x2="4" y2="80" stroke="rgba(0,0,0,0.07)" stroke-width="1"/>
    </pattern>
  </defs>

  <!-- Door base -->
  <rect x="0" y="0" width="200" height="560" fill="url(#woodL)"/>
  <rect x="0" y="0" width="200" height="560" fill="url(#woodGrainL)"/>

  <!-- Outer gold border -->
  <rect x="4" y="4" width="192" height="552" fill="none" stroke="url(#goldShineL)" stroke-width="3" rx="2"/>
  <!-- Inner gold border -->
  <rect x="10" y="10" width="180" height="540" fill="none" stroke="#D4A017" stroke-width="1" stroke-opacity="0.5" rx="1"/>

  <!-- ═══ TOP ARCH PANEL ═══ -->
  <!-- Arch panel border -->
  <rect x="18" y="18" width="164" height="120" fill="url(#panelBgL)" rx="4" stroke="#D4A017" stroke-width="1.5"/>
  <rect x="22" y="22" width="156" height="112" fill="none" stroke="#D4A017" stroke-width="0.6" stroke-opacity="0.4" rx="2"/>

  <!-- Lotus flower top panel -->
  <!-- Petals -->
  <ellipse cx="100" cy="68" rx="8" ry="18" fill="#D4A017" opacity="0.85" transform="rotate(0,100,78)"/>
  <ellipse cx="100" cy="68" rx="8" ry="18" fill="#D4A017" opacity="0.75" transform="rotate(45,100,78)"/>
  <ellipse cx="100" cy="68" rx="8" ry="18" fill="#D4A017" opacity="0.75" transform="rotate(90,100,78)"/>
  <ellipse cx="100" cy="68" rx="8" ry="18" fill="#D4A017" opacity="0.75" transform="rotate(135,100,78)"/>
  <ellipse cx="100" cy="68" rx="8" ry="18" fill="#D4A017" opacity="0.6" transform="rotate(22.5,100,78)"/>
  <ellipse cx="100" cy="68" rx="8" ry="18" fill="#D4A017" opacity="0.6" transform="rotate(67.5,100,78)"/>
  <ellipse cx="100" cy="68" rx="8" ry="18" fill="#D4A017" opacity="0.6" transform="rotate(112.5,100,78)"/>
  <ellipse cx="100" cy="68" rx="8" ry="18" fill="#D4A017" opacity="0.6" transform="rotate(157.5,100,78)"/>
  <!-- Lotus centre -->
  <circle cx="100" cy="78" r="10" fill="#FFD700" opacity="0.9"/>
  <circle cx="100" cy="78" r="6"  fill="#D4A017"/>
  <circle cx="100" cy="78" r="3"  fill="#FFE066"/>

  <!-- Corner swirls top panel -->
  <path d="M26 26 Q34 26 34 34 Q34 42 26 42" fill="none" stroke="#D4A017" stroke-width="1.2" stroke-opacity="0.7"/>
  <circle cx="26" cy="26" r="2" fill="#D4A017" opacity="0.7"/>
  <path d="M174 26 Q166 26 166 34 Q166 42 174 42" fill="none" stroke="#D4A017" stroke-width="1.2" stroke-opacity="0.7"/>
  <circle cx="174" cy="26" r="2" fill="#D4A017" opacity="0.7"/>
  <path d="M26 130 Q34 130 34 122 Q34 114 26 114" fill="none" stroke="#D4A017" stroke-width="1.2" stroke-opacity="0.7"/>
  <circle cx="26" cy="130" r="2" fill="#D4A017" opacity="0.7"/>
  <path d="M174 130 Q166 130 166 122 Q166 114 174 114" fill="none" stroke="#D4A017" stroke-width="1.2" stroke-opacity="0.7"/>
  <circle cx="174" cy="130" r="2" fill="#D4A017" opacity="0.7"/>

  <!-- ═══ JALI LATTICE MIDDLE BAND ═══ -->
  <rect x="18" y="148" width="164" height="36" fill="#3A0800" rx="2" stroke="#D4A017" stroke-width="1.2"/>
  <!-- Jali pattern - repeating diamonds -->
  <g stroke="#D4A017" stroke-width="0.8" fill="none" opacity="0.8">
    <!-- Row of diamond jali -->
    <polygon points="36,158 44,166 36,174 28,166" />
    <polygon points="52,158 60,166 52,174 44,166" />
    <polygon points="68,158 76,166 68,174 60,166" />
    <polygon points="84,158 92,166 84,174 76,166" />
    <polygon points="100,158 108,166 100,174 92,166" />
    <polygon points="116,158 124,166 116,174 108,166" />
    <polygon points="132,158 140,166 132,174 124,166" />
    <polygon points="148,158 156,166 148,174 140,166" />
    <polygon points="164,158 172,166 164,174 156,166" />
    <!-- Fill dots -->
    <circle cx="36" cy="166" r="1.5" fill="#D4A017"/>
    <circle cx="52" cy="166" r="1.5" fill="#D4A017"/>
    <circle cx="68" cy="166" r="1.5" fill="#D4A017"/>
    <circle cx="84" cy="166" r="1.5" fill="#D4A017"/>
    <circle cx="100" cy="166" r="1.5" fill="#D4A017"/>
    <circle cx="116" cy="166" r="1.5" fill="#D4A017"/>
    <circle cx="132" cy="166" r="1.5" fill="#D4A017"/>
    <circle cx="148" cy="166" r="1.5" fill="#D4A017"/>
    <circle cx="164" cy="166" r="1.5" fill="#D4A017"/>
  </g>

  <!-- ═══ MAIN CENTRE PANEL ═══ -->
  <rect x="18" y="194" width="164" height="200" fill="url(#panelBgL)" rx="4" stroke="#D4A017" stroke-width="1.5"/>
  <rect x="24" y="200" width="152" height="188" fill="none" stroke="#D4A017" stroke-width="0.6" stroke-opacity="0.4" rx="2"/>

  <!-- ═══ ORNATE CENTRE MEDALLION ═══ -->
  <!-- 8-pointed star foundation -->
  <polygon points="100,232 114,261 144,250 133,280 162,294 133,308 144,338 114,327 100,356 86,327 56,338 67,308 38,294 67,280 56,250 86,261"
           fill="#3A0800" stroke="#D4A017" stroke-width="1.2" opacity="0.85"/>
  <polygon points="100,236 112,264 141,253 130,282 158,294 130,306 141,335 112,324 100,352 88,324 59,335 70,306 42,294 70,282 59,253 88,264"
           fill="none" stroke="#D4A017" stroke-width="0.5" stroke-opacity="0.45"/>
  <!-- Outer circle guide -->
  <circle cx="100" cy="294" r="63" fill="none" stroke="#D4A017" stroke-width="0.7" stroke-opacity="0.4" stroke-dasharray="4,3"/>
  <!-- 16-petal outer rosette -->
  <g transform="translate(100,294)">
    <ellipse cx="0" cy="-44" rx="7" ry="18" fill="#6B1500" stroke="#D4A017" stroke-width="0.7" transform="rotate(0,0,0)"/>
    <ellipse cx="0" cy="-44" rx="7" ry="18" fill="#6B1500" stroke="#D4A017" stroke-width="0.7" transform="rotate(22.5,0,0)"/>
    <ellipse cx="0" cy="-44" rx="7" ry="18" fill="#6B1500" stroke="#D4A017" stroke-width="0.7" transform="rotate(45,0,0)"/>
    <ellipse cx="0" cy="-44" rx="7" ry="18" fill="#6B1500" stroke="#D4A017" stroke-width="0.7" transform="rotate(67.5,0,0)"/>
    <ellipse cx="0" cy="-44" rx="7" ry="18" fill="#6B1500" stroke="#D4A017" stroke-width="0.7" transform="rotate(90,0,0)"/>
    <ellipse cx="0" cy="-44" rx="7" ry="18" fill="#6B1500" stroke="#D4A017" stroke-width="0.7" transform="rotate(112.5,0,0)"/>
    <ellipse cx="0" cy="-44" rx="7" ry="18" fill="#6B1500" stroke="#D4A017" stroke-width="0.7" transform="rotate(135,0,0)"/>
    <ellipse cx="0" cy="-44" rx="7" ry="18" fill="#6B1500" stroke="#D4A017" stroke-width="0.7" transform="rotate(157.5,0,0)"/>
    <ellipse cx="0" cy="-44" rx="7" ry="18" fill="#6B1500" stroke="#D4A017" stroke-width="0.7" transform="rotate(180,0,0)"/>
    <ellipse cx="0" cy="-44" rx="7" ry="18" fill="#6B1500" stroke="#D4A017" stroke-width="0.7" transform="rotate(202.5,0,0)"/>
    <ellipse cx="0" cy="-44" rx="7" ry="18" fill="#6B1500" stroke="#D4A017" stroke-width="0.7" transform="rotate(225,0,0)"/>
    <ellipse cx="0" cy="-44" rx="7" ry="18" fill="#6B1500" stroke="#D4A017" stroke-width="0.7" transform="rotate(247.5,0,0)"/>
    <ellipse cx="0" cy="-44" rx="7" ry="18" fill="#6B1500" stroke="#D4A017" stroke-width="0.7" transform="rotate(270,0,0)"/>
    <ellipse cx="0" cy="-44" rx="7" ry="18" fill="#6B1500" stroke="#D4A017" stroke-width="0.7" transform="rotate(292.5,0,0)"/>
    <ellipse cx="0" cy="-44" rx="7" ry="18" fill="#6B1500" stroke="#D4A017" stroke-width="0.7" transform="rotate(315,0,0)"/>
    <ellipse cx="0" cy="-44" rx="7" ry="18" fill="#6B1500" stroke="#D4A017" stroke-width="0.7" transform="rotate(337.5,0,0)"/>
  </g>
  <!-- Mid ring fill -->
  <circle cx="100" cy="294" r="43" fill="#3D0800" stroke="#D4A017" stroke-width="1"/>
  <!-- 12-petal gold rosette -->
  <g transform="translate(100,294)">
    <ellipse cx="0" cy="-28" rx="7" ry="13" fill="#D4A017" transform="rotate(0,0,0)"/>
    <ellipse cx="0" cy="-28" rx="7" ry="13" fill="#D4A017" transform="rotate(30,0,0)"/>
    <ellipse cx="0" cy="-28" rx="7" ry="13" fill="#D4A017" transform="rotate(60,0,0)"/>
    <ellipse cx="0" cy="-28" rx="7" ry="13" fill="#D4A017" transform="rotate(90,0,0)"/>
    <ellipse cx="0" cy="-28" rx="7" ry="13" fill="#D4A017" transform="rotate(120,0,0)"/>
    <ellipse cx="0" cy="-28" rx="7" ry="13" fill="#D4A017" transform="rotate(150,0,0)"/>
    <ellipse cx="0" cy="-28" rx="7" ry="13" fill="#D4A017" transform="rotate(180,0,0)"/>
    <ellipse cx="0" cy="-28" rx="7" ry="13" fill="#D4A017" transform="rotate(210,0,0)"/>
    <ellipse cx="0" cy="-28" rx="7" ry="13" fill="#D4A017" transform="rotate(240,0,0)"/>
    <ellipse cx="0" cy="-28" rx="7" ry="13" fill="#D4A017" transform="rotate(270,0,0)"/>
    <ellipse cx="0" cy="-28" rx="7" ry="13" fill="#D4A017" transform="rotate(300,0,0)"/>
    <ellipse cx="0" cy="-28" rx="7" ry="13" fill="#D4A017" transform="rotate(330,0,0)"/>
  </g>
  <!-- Inner ring fill -->
  <circle cx="100" cy="294" r="18" fill="#3D0800" stroke="#D4A017" stroke-width="0.8"/>
  <!-- 8-petal pale gold rosette -->
  <g transform="translate(100,294)">
    <ellipse cx="0" cy="-13" rx="5" ry="8" fill="#FFE066" transform="rotate(0,0,0)"/>
    <ellipse cx="0" cy="-13" rx="5" ry="8" fill="#FFE066" transform="rotate(45,0,0)"/>
    <ellipse cx="0" cy="-13" rx="5" ry="8" fill="#FFE066" transform="rotate(90,0,0)"/>
    <ellipse cx="0" cy="-13" rx="5" ry="8" fill="#FFE066" transform="rotate(135,0,0)"/>
    <ellipse cx="0" cy="-13" rx="5" ry="8" fill="#FFE066" transform="rotate(180,0,0)"/>
    <ellipse cx="0" cy="-13" rx="5" ry="8" fill="#FFE066" transform="rotate(225,0,0)"/>
    <ellipse cx="0" cy="-13" rx="5" ry="8" fill="#FFE066" transform="rotate(270,0,0)"/>
    <ellipse cx="0" cy="-13" rx="5" ry="8" fill="#FFE066" transform="rotate(315,0,0)"/>
  </g>
  <!-- Centre jewel -->
  <circle cx="100" cy="294" r="9" fill="#4A0800" stroke="#D4A017" stroke-width="1.2"/>
  <circle cx="100" cy="294" r="6" fill="#D4A017"/>
  <circle cx="100" cy="294" r="3.5" fill="#8B6914"/>
  <circle cx="100" cy="294" r="1.5" fill="#FFE066"/>
  <!-- Cardinal accent stems and diamonds -->
  <line x1="100" y1="204" x2="100" y2="232" stroke="#D4A017" stroke-width="0.7" stroke-opacity="0.55"/>
  <line x1="100" y1="356" x2="100" y2="384" stroke="#D4A017" stroke-width="0.7" stroke-opacity="0.55"/>
  <line x1="28" y1="294" x2="38" y2="294" stroke="#D4A017" stroke-width="0.7" stroke-opacity="0.55"/>
  <line x1="162" y1="294" x2="172" y2="294" stroke="#D4A017" stroke-width="0.7" stroke-opacity="0.55"/>
  <polygon points="100,208 103,212 100,216 97,212" fill="#D4A017" opacity="0.85"/>
  <polygon points="100,372 103,376 100,380 97,376" fill="#D4A017" opacity="0.85"/>
  <polygon points="30,294 34,290 38,294 34,298" fill="#D4A017" opacity="0.85"/>
  <polygon points="162,294 166,290 170,294 166,298" fill="#D4A017" opacity="0.85"/>
  <!-- Corner mini rosettes -->
  <g transform="translate(40,218)">
    <ellipse cx="0" cy="-9" rx="3" ry="6" fill="#D4A017" opacity="0.85" transform="rotate(0,0,0)"/>
    <ellipse cx="0" cy="-9" rx="3" ry="6" fill="#D4A017" opacity="0.85" transform="rotate(60,0,0)"/>
    <ellipse cx="0" cy="-9" rx="3" ry="6" fill="#D4A017" opacity="0.85" transform="rotate(120,0,0)"/>
    <ellipse cx="0" cy="-9" rx="3" ry="6" fill="#D4A017" opacity="0.85" transform="rotate(180,0,0)"/>
    <ellipse cx="0" cy="-9" rx="3" ry="6" fill="#D4A017" opacity="0.85" transform="rotate(240,0,0)"/>
    <ellipse cx="0" cy="-9" rx="3" ry="6" fill="#D4A017" opacity="0.85" transform="rotate(300,0,0)"/>
    <circle cx="0" cy="0" r="3" fill="#D4A017"/>
    <circle cx="0" cy="0" r="1.5" fill="#FFE066"/>
  </g>
  <g transform="translate(160,218)">
    <ellipse cx="0" cy="-9" rx="3" ry="6" fill="#D4A017" opacity="0.85" transform="rotate(0,0,0)"/>
    <ellipse cx="0" cy="-9" rx="3" ry="6" fill="#D4A017" opacity="0.85" transform="rotate(60,0,0)"/>
    <ellipse cx="0" cy="-9" rx="3" ry="6" fill="#D4A017" opacity="0.85" transform="rotate(120,0,0)"/>
    <ellipse cx="0" cy="-9" rx="3" ry="6" fill="#D4A017" opacity="0.85" transform="rotate(180,0,0)"/>
    <ellipse cx="0" cy="-9" rx="3" ry="6" fill="#D4A017" opacity="0.85" transform="rotate(240,0,0)"/>
    <ellipse cx="0" cy="-9" rx="3" ry="6" fill="#D4A017" opacity="0.85" transform="rotate(300,0,0)"/>
    <circle cx="0" cy="0" r="3" fill="#D4A017"/>
    <circle cx="0" cy="0" r="1.5" fill="#FFE066"/>
  </g>
  <g transform="translate(40,370)">
    <ellipse cx="0" cy="-9" rx="3" ry="6" fill="#D4A017" opacity="0.85" transform="rotate(0,0,0)"/>
    <ellipse cx="0" cy="-9" rx="3" ry="6" fill="#D4A017" opacity="0.85" transform="rotate(60,0,0)"/>
    <ellipse cx="0" cy="-9" rx="3" ry="6" fill="#D4A017" opacity="0.85" transform="rotate(120,0,0)"/>
    <ellipse cx="0" cy="-9" rx="3" ry="6" fill="#D4A017" opacity="0.85" transform="rotate(180,0,0)"/>
    <ellipse cx="0" cy="-9" rx="3" ry="6" fill="#D4A017" opacity="0.85" transform="rotate(240,0,0)"/>
    <ellipse cx="0" cy="-9" rx="3" ry="6" fill="#D4A017" opacity="0.85" transform="rotate(300,0,0)"/>
    <circle cx="0" cy="0" r="3" fill="#D4A017"/>
    <circle cx="0" cy="0" r="1.5" fill="#FFE066"/>
  </g>
  <g transform="translate(160,370)">
    <ellipse cx="0" cy="-9" rx="3" ry="6" fill="#D4A017" opacity="0.85" transform="rotate(0,0,0)"/>
    <ellipse cx="0" cy="-9" rx="3" ry="6" fill="#D4A017" opacity="0.85" transform="rotate(60,0,0)"/>
    <ellipse cx="0" cy="-9" rx="3" ry="6" fill="#D4A017" opacity="0.85" transform="rotate(120,0,0)"/>
    <ellipse cx="0" cy="-9" rx="3" ry="6" fill="#D4A017" opacity="0.85" transform="rotate(180,0,0)"/>
    <ellipse cx="0" cy="-9" rx="3" ry="6" fill="#D4A017" opacity="0.85" transform="rotate(240,0,0)"/>
    <ellipse cx="0" cy="-9" rx="3" ry="6" fill="#D4A017" opacity="0.85" transform="rotate(300,0,0)"/>
    <circle cx="0" cy="0" r="3" fill="#D4A017"/>
    <circle cx="0" cy="0" r="1.5" fill="#FFE066"/>
  </g>
  <!-- Corner-to-star connecting curves -->
  <path d="M40 218 Q52 236 56 250" fill="none" stroke="#D4A017" stroke-width="0.8" stroke-opacity="0.5"/>
  <path d="M160 218 Q148 236 144 250" fill="none" stroke="#D4A017" stroke-width="0.8" stroke-opacity="0.5"/>
  <path d="M40 370 Q52 352 56 338" fill="none" stroke="#D4A017" stroke-width="0.8" stroke-opacity="0.5"/>
  <path d="M160 370 Q148 352 144 338" fill="none" stroke="#D4A017" stroke-width="0.8" stroke-opacity="0.5"/>
  <!-- Side vine scrollwork -->
  <path d="M30 232 Q36 254 30 272 Q24 292 30 312 Q36 332 30 354" fill="none" stroke="#D4A017" stroke-width="0.8" stroke-opacity="0.4"/>
  <path d="M170 232 Q164 254 170 272 Q176 292 170 312 Q164 332 170 354" fill="none" stroke="#D4A017" stroke-width="0.8" stroke-opacity="0.4"/>
  <ellipse cx="30" cy="254" rx="4" ry="7" fill="none" stroke="#D4A017" stroke-width="0.7" stroke-opacity="0.5" transform="rotate(-15,30,254)"/>
  <ellipse cx="30" cy="332" rx="4" ry="7" fill="none" stroke="#D4A017" stroke-width="0.7" stroke-opacity="0.5" transform="rotate(15,30,332)"/>
  <ellipse cx="170" cy="254" rx="4" ry="7" fill="none" stroke="#D4A017" stroke-width="0.7" stroke-opacity="0.5" transform="rotate(15,170,254)"/>
  <ellipse cx="170" cy="332" rx="4" ry="7" fill="none" stroke="#D4A017" stroke-width="0.7" stroke-opacity="0.5" transform="rotate(-15,170,332)"/>

  <!-- Centre panel corner ornaments -->
  <path d="M26 202 L38 202 L38 214" fill="none" stroke="#D4A017" stroke-width="1" stroke-opacity="0.6"/>
  <path d="M162 202 L174 202 L174 214" fill="none" stroke="#D4A017" stroke-width="1" stroke-opacity="0.6"/>
  <path d="M26 384 L38 384 L38 372" fill="none" stroke="#D4A017" stroke-width="1" stroke-opacity="0.6"/>
  <path d="M162 384 L174 384 L174 372" fill="none" stroke="#D4A017" stroke-width="1" stroke-opacity="0.6"/>

  <!-- ═══ LOWER JALI BAND ═══ -->
  <rect x="18" y="404" width="164" height="36" fill="#3A0800" rx="2" stroke="#D4A017" stroke-width="1.2"/>
  <g stroke="#D4A017" stroke-width="0.8" fill="none" opacity="0.8">
    <polygon points="36,414 44,422 36,430 28,422" />
    <polygon points="52,414 60,422 52,430 44,422" />
    <polygon points="68,414 76,422 68,430 60,422" />
    <polygon points="84,414 92,422 84,430 76,422" />
    <polygon points="100,414 108,422 100,430 92,422" />
    <polygon points="116,414 124,422 116,430 108,422" />
    <polygon points="132,414 140,422 132,430 124,422" />
    <polygon points="148,414 156,422 148,430 140,422" />
    <polygon points="164,414 172,422 164,430 156,422" />
    <circle cx="36" cy="422" r="1.5" fill="#D4A017"/>
    <circle cx="52" cy="422" r="1.5" fill="#D4A017"/>
    <circle cx="68" cy="422" r="1.5" fill="#D4A017"/>
    <circle cx="84" cy="422" r="1.5" fill="#D4A017"/>
    <circle cx="100" cy="422" r="1.5" fill="#D4A017"/>
    <circle cx="116" cy="422" r="1.5" fill="#D4A017"/>
    <circle cx="132" cy="422" r="1.5" fill="#D4A017"/>
    <circle cx="148" cy="422" r="1.5" fill="#D4A017"/>
    <circle cx="164" cy="422" r="1.5" fill="#D4A017"/>
  </g>

  <!-- ═══ BOTTOM PANEL ═══ -->
  <rect x="18" y="450" width="164" height="94" fill="url(#panelBgL)" rx="4" stroke="#D4A017" stroke-width="1.5"/>
  <rect x="24" y="456" width="152" height="82" fill="none" stroke="#D4A017" stroke-width="0.6" stroke-opacity="0.4" rx="2"/>

  <!-- Kalash (sacred pot) -->
  <path d="M80 518 L76 490 Q76 484 100 484 Q124 484 124 490 L120 518 Z" fill="#8B6914" stroke="#D4A017" stroke-width="1"/>
  <path d="M76 490 Q100 486 124 490" fill="none" stroke="#FFD700" stroke-width="1"/>
  <!-- Kalash neck -->
  <rect x="90" y="476" width="20" height="10" rx="3" fill="#D4A017"/>
  <!-- Kalash top — mango leaves and coconut -->
  <ellipse cx="100" cy="474" rx="10" ry="5" fill="#1A7A50"/>
  <circle cx="100" cy="468" r="6" fill="#8B4513"/>
  <!-- Kalash decoration lines -->
  <line x1="82" y1="500" x2="118" y2="500" stroke="#FFD700" stroke-width="0.8" stroke-opacity="0.6"/>
  <line x1="80" y1="508" x2="120" y2="508" stroke="#FFD700" stroke-width="0.8" stroke-opacity="0.6"/>
  <!-- Small flowers around kalash -->
  <circle cx="66" cy="500" r="4" fill="none" stroke="#D4A017" stroke-width="0.8"/>
  <circle cx="66" cy="500" r="1.5" fill="#D4A017"/>
  <circle cx="134" cy="500" r="4" fill="none" stroke="#D4A017" stroke-width="0.8"/>
  <circle cx="134" cy="500" r="1.5" fill="#D4A017"/>

  <!-- Bottom corner ornaments -->
  <path d="M26 458 L38 458 L38 470" fill="none" stroke="#D4A017" stroke-width="1" stroke-opacity="0.6"/>
  <path d="M162 458 L174 458 L174 470" fill="none" stroke="#D4A017" stroke-width="1" stroke-opacity="0.6"/>
  <path d="M26 536 L38 536 L38 524" fill="none" stroke="#D4A017" stroke-width="1" stroke-opacity="0.6"/>
  <path d="M162 536 L174 536 L174 524" fill="none" stroke="#D4A017" stroke-width="1" stroke-opacity="0.6"/>

  <!-- Door knob -->
  <circle cx="186" cy="280" r="10" fill="url(#goldShineL)" stroke="#8B6914" stroke-width="1"/>
  <circle cx="186" cy="280" r="6"  fill="#D4A017"/>
  <circle cx="183" cy="277" r="2"  fill="rgba(255,255,255,0.35)"/>

  <!-- Right edge shadow line -->
  <line x1="199" y1="0" x2="199" y2="560" stroke="rgba(0,0,0,0.4)" stroke-width="2"/>
</svg>